<svg width="90" height="35" viewBox="0 0 90 35" fill="none" xmlns="http://www.w3.org/2000/svg">
<path d="M0.402735 5.6455C0.766315 5.6455 1.09074 5.73556 1.3872 5.92131C1.67806 6.10142 1.85705 6.41662 1.91858 6.86128C2.28216 6.49542 2.77439 6.16897 3.39528 5.88191C4.01616 5.59485 4.75451 5.45413 5.61032 5.45413C6.68428 5.45413 7.50653 5.69053 8.07147 6.16897C8.63642 6.64177 9.01119 7.2384 9.18459 7.95323C9.2629 8.26844 9.30764 8.62304 9.32442 9.01141C9.34121 9.39978 9.3468 9.7769 9.3468 10.1428V16.9083H7.33313V10.2159C7.33313 9.91199 7.32753 9.62493 7.32194 9.34913C7.31635 9.07333 7.2716 8.81441 7.19329 8.57238C7.08142 8.16149 6.85208 7.84066 6.50528 7.62115C6.15848 7.40163 5.64388 7.28906 4.96706 7.28906C4.0665 7.28906 3.35053 7.46917 2.81355 7.82377C2.27657 8.17838 2.00808 8.56675 2.00808 8.97764V16.9083H0V5.66802H0.117464C0.151025 5.66802 0.19018 5.66239 0.246116 5.65676C0.302051 5.6455 0.357986 5.6455 0.402735 5.6455Z" fill="#007A33"/>
<path d="M16.6687 15.5293C17.1274 15.5293 17.5245 15.4843 17.8657 15.3886C18.207 15.2929 18.4978 15.1747 18.7383 15.034C18.9845 14.8933 19.1914 14.747 19.3648 14.595C19.5382 14.443 19.6781 14.3023 19.7899 14.1785C19.9633 14.4036 20.1199 14.64 20.2542 14.8933C20.3884 15.1466 20.4556 15.3436 20.4556 15.4899C20.4556 15.6194 20.4164 15.7489 20.3381 15.8896C20.2598 16.0303 20.1255 16.1654 19.9354 16.3117C19.5718 16.5875 19.1075 16.8127 18.537 16.9984C17.972 17.1841 17.284 17.2742 16.4785 17.2742C15.7346 17.2742 15.041 17.1673 14.381 16.9534C13.7265 16.7395 13.1504 16.3961 12.6582 15.9177C12.1659 15.4393 11.7744 14.8201 11.4891 14.049C11.1982 13.2779 11.0584 12.3379 11.0584 11.2291C11.0584 10.2272 11.2038 9.36039 11.4947 8.6343C11.7856 7.90258 12.1715 7.30595 12.6414 6.83314C13.1112 6.36597 13.6538 6.02263 14.2635 5.79748C14.8732 5.57234 15.4997 5.46539 16.1429 5.46539C16.9484 5.46539 17.6364 5.60048 18.2125 5.87065C18.7887 6.14083 19.2585 6.50106 19.6221 6.95697C19.9857 7.40726 20.2542 7.93635 20.4276 8.52735C20.6066 9.1071 20.6961 9.72625 20.6961 10.3567C20.6961 10.5818 20.6905 10.8069 20.6849 11.0377C20.6793 11.2685 20.6569 11.488 20.629 11.6906H13.1672C13.2119 12.8445 13.5196 13.7676 14.0789 14.4712C14.6383 15.1747 15.5053 15.5293 16.6687 15.5293ZM18.6824 10.1709C18.6824 9.74313 18.6377 9.3435 18.5537 8.97764C18.4643 8.61178 18.3188 8.29095 18.1175 8.01515C17.9161 7.73935 17.642 7.51983 17.3064 7.36223C16.9652 7.20463 16.5569 7.12583 16.0702 7.12583C15.2536 7.12583 14.5823 7.396 14.0565 7.93635C13.5308 8.4767 13.2343 9.21967 13.1728 10.1765H18.6824V10.1709Z" fill="#007A33"/>
<path d="M28.2082 14.5049C28.1747 14.5499 28.1019 14.6287 27.9845 14.7413C27.867 14.8539 27.7216 14.9665 27.5482 15.0847C27.3748 15.2029 27.179 15.3098 26.9553 15.3942C26.7315 15.4843 26.4966 15.5237 26.2449 15.5237C25.2213 15.5237 24.7067 14.8708 24.7067 13.5706V7.42975H28.2306V5.69052H24.7067V3.7993C24.7067 3.21393 24.55 2.8143 24.2312 2.59478C23.918 2.37527 23.5432 2.2627 23.1181 2.2627C23.0678 2.2627 23.0174 2.26832 22.9615 2.27395C22.9055 2.27958 22.8608 2.28521 22.8328 2.28521H22.693V13.4298C22.693 13.7788 22.7042 14.1334 22.7266 14.488C22.7489 14.8483 22.8161 15.1747 22.9279 15.4787C23.1349 16.0359 23.4817 16.4693 23.9683 16.7901C24.455 17.1053 25.1094 17.2686 25.9317 17.2686C26.3735 17.2686 26.7819 17.2179 27.151 17.1278C27.5202 17.0322 27.8335 16.914 28.0852 16.7676C28.3369 16.6269 28.5326 16.4693 28.6781 16.3004C28.8179 16.1316 28.8906 15.9796 28.8906 15.8389C28.8906 15.6306 28.8235 15.4167 28.6893 15.1972C28.555 14.9721 28.3928 14.7413 28.2082 14.5049Z" fill="#007A33"/>
<path d="M42.164 17.004H40.1504L37.9242 11.2178L35.4854 17.004H33.6842L29.8247 5.80872C29.9981 5.76369 30.1659 5.72429 30.3337 5.69052C30.4959 5.65675 30.6749 5.64549 30.8651 5.64549C31.609 5.64549 32.1013 6.05638 32.353 6.88378L34.7918 14.7413L37.0627 9.14648L35.8545 5.78621C36.1566 5.69052 36.4698 5.64549 36.7998 5.64549C37.5102 5.64549 37.9969 6.02824 38.2654 6.7881L41.1069 14.7638L43.0478 7.21587C43.1597 6.7881 43.3219 6.41661 43.5457 6.10704C43.7694 5.79746 44.105 5.63986 44.5637 5.63986C44.8769 5.63986 45.2013 5.70178 45.537 5.83123L42.164 17.004Z" fill="#007A33"/>
<path d="M57.2666 11.2629C57.2666 12.0396 57.1715 12.7938 56.9813 13.5143C56.7912 14.2404 56.4891 14.8764 56.0696 15.4336C55.6501 15.9909 55.1131 16.4355 54.4475 16.7676C53.7874 17.0997 52.982 17.2686 52.0366 17.2686C51.0913 17.2686 50.2915 17.111 49.637 16.7901C48.9826 16.4749 48.4512 16.0415 48.0373 15.5012C47.6289 14.9608 47.3269 14.3304 47.1367 13.61C46.9465 12.8895 46.8514 12.1297 46.8514 11.336C46.8514 10.5424 46.9633 9.78816 47.1815 9.07333C47.4052 8.35849 47.7352 7.73372 48.1771 7.20463C48.619 6.66991 49.1672 6.24777 49.8216 5.93256C50.476 5.61736 51.2424 5.45413 52.1317 5.45413C53.0603 5.45413 53.849 5.61173 54.4978 5.93256C55.1467 6.24777 55.6724 6.67554 56.0808 7.20463C56.4947 7.73372 56.7912 8.35286 56.9813 9.05081C57.1715 9.74876 57.2666 10.4861 57.2666 11.2629ZM55.1578 11.2629C55.1578 10.7732 55.1131 10.2835 55.0292 9.79941C54.9397 9.31535 54.7887 8.87632 54.5649 8.48795C54.3468 8.09958 54.0391 7.78437 53.642 7.54797C53.2449 7.31157 52.7302 7.18774 52.0982 7.18774C51.4941 7.18774 50.9962 7.30594 50.5935 7.54797C50.1908 7.78437 49.8664 8.09958 49.6314 8.48795C49.3909 8.87632 49.2231 9.31535 49.1224 9.79941C49.0161 10.2835 48.9658 10.7732 48.9658 11.2629C48.9658 11.7582 49.0105 12.2535 49.0944 12.7657C49.1839 13.2723 49.3462 13.7282 49.5811 14.1334C49.8216 14.5387 50.1348 14.8708 50.532 15.1353C50.9291 15.3999 51.4325 15.5293 52.0534 15.5293C52.6855 15.5293 53.2113 15.3999 53.6196 15.1353C54.0335 14.8764 54.3468 14.5387 54.5705 14.1334C54.7943 13.7282 54.9453 13.2723 55.0348 12.7657C55.1131 12.2591 55.1578 11.7582 55.1578 11.2629Z" fill="#007A33"/>
<path d="M59.739 5.64551C60.1025 5.64551 60.4325 5.73556 60.7234 5.92131C61.0143 6.10142 61.1933 6.411 61.2548 6.83877C61.4785 6.50668 61.8086 6.19148 62.2505 5.89879C62.6923 5.60611 63.2069 5.45976 63.7887 5.45976C63.9621 5.45976 64.1467 5.47665 64.348 5.51042C64.5438 5.54419 64.7284 5.59485 64.9018 5.66239C65.0752 5.73556 65.215 5.83125 65.3269 5.96071C65.4388 6.08454 65.4947 6.2534 65.4947 6.46165C65.4947 6.71494 65.4332 6.99074 65.3045 7.28343C65.1759 7.57612 65.0528 7.81815 64.9242 8.00952C64.7172 7.81815 64.4991 7.6718 64.2585 7.57049C64.0236 7.46917 63.7216 7.41289 63.358 7.41289C63.0895 7.41289 62.8322 7.45792 62.5861 7.54235C62.3399 7.6324 62.1218 7.7506 61.9372 7.90258C61.747 8.05455 61.596 8.22341 61.4897 8.41478C61.3779 8.60615 61.3275 8.80315 61.3275 9.01141V16.9196H59.3138V5.66802H59.4816C59.532 5.66802 59.5767 5.66239 59.6271 5.65676C59.6662 5.64551 59.7054 5.64551 59.739 5.64551Z" fill="#007A33"/>
<path d="M66.9546 16.9083V0.0225144H67.1C67.1336 0.0225144 67.1727 0.0168858 67.2287 0.0112572C67.2846 0.0056286 67.335 0 67.3797 0C67.8216 0 68.1964 0.112572 68.504 0.343345C68.8116 0.574118 68.9683 0.990634 68.9683 1.5929V16.9083H66.9546ZM69.5108 11.049V10.2609L73.5829 6.18584C74.0248 5.77495 74.4779 5.56669 74.9366 5.56669C75.11 5.56669 75.2666 5.59483 75.4064 5.65112C75.5519 5.70741 75.6749 5.76932 75.7868 5.83123C75.9098 5.89315 76.0329 5.97195 76.1448 6.06764L71.6028 10.5705L76.8496 16.8858C76.4692 17.0265 76.0776 17.0997 75.6637 17.0997C75.3505 17.0997 75.0373 17.0322 74.7296 16.8971C74.422 16.762 74.1423 16.5425 73.8906 16.2442L69.5108 11.049Z" fill="#007A33"/>
<path d="M6.91361 23.3587C7.22685 23.5332 7.4394 23.6964 7.55128 23.8484C7.66315 24.0004 7.71908 24.1467 7.71908 24.2874C7.71908 24.4619 7.67433 24.6646 7.59043 24.8953C7.50093 25.1261 7.39466 25.3512 7.2716 25.5764L6.94158 25.5989C6.67309 25.2668 6.28154 24.9741 5.77253 24.7321C5.25793 24.4844 4.70976 24.3606 4.12803 24.3606C3.92107 24.3606 3.69733 24.3831 3.45121 24.4169C3.2051 24.4563 2.97576 24.5295 2.76321 24.6308C2.55065 24.7321 2.37166 24.8784 2.23182 25.0698C2.09198 25.2612 2.01927 25.4976 2.01927 25.7846C2.01927 26.2912 2.24301 26.6571 2.69608 26.8822C3.14357 27.1017 3.70292 27.2931 4.36296 27.4563C4.83282 27.5689 5.29149 27.704 5.73338 27.8729C6.17526 28.0417 6.56681 28.2556 6.90242 28.5145C7.24363 28.7791 7.51212 29.1055 7.70789 29.5052C7.90367 29.8992 8.00435 30.3945 8.00435 30.9798C8.00435 31.5652 7.88689 32.0774 7.65196 32.5165C7.41703 32.9555 7.0982 33.3157 6.70665 33.614C6.30951 33.9067 5.85084 34.1319 5.31945 34.2782C4.78807 34.4302 4.24549 34.5034 3.67495 34.5034C3.12119 34.5034 2.62337 34.4583 2.18148 34.3739C1.73959 34.2895 1.37042 34.1769 1.06837 34.0531C0.671224 33.8955 0.397141 33.7322 0.240522 33.5634C0.0783095 33.3945 0 33.2257 0 33.0512C0 32.8485 0.0559354 32.629 0.167806 32.4095C0.279677 32.19 0.419515 31.9367 0.592915 31.6497C0.704786 31.7453 0.855811 31.8635 1.05158 32.0043C1.24736 32.145 1.48229 32.2801 1.75637 32.4095C2.03045 32.539 2.3325 32.6459 2.66252 32.7303C2.99254 32.8204 3.34494 32.8598 3.7253 32.8598C4.00497 32.8598 4.28465 32.8317 4.54755 32.7754C4.81604 32.7191 5.05656 32.629 5.26911 32.4996C5.48167 32.3701 5.65507 32.1956 5.78931 31.9761C5.92356 31.751 5.99068 31.4752 5.99068 31.1431C5.99068 30.811 5.91796 30.5352 5.77812 30.3213C5.63829 30.1074 5.4481 29.9273 5.21318 29.7866C4.97825 29.6459 4.71535 29.5277 4.42449 29.4432C4.13362 29.3588 3.83717 29.28 3.54071 29.2181C3.08763 29.1224 2.64574 28.9986 2.23182 28.8466C1.8179 28.6946 1.44873 28.492 1.1243 28.2387C0.799876 27.9854 0.542573 27.6646 0.346799 27.2875C0.151026 26.9047 0.0503418 26.4488 0.0503418 25.9028C0.0503418 25.3794 0.162213 24.9178 0.380361 24.5126C0.598508 24.1073 0.900559 23.7752 1.28092 23.5107C1.66128 23.2518 2.09198 23.0491 2.57303 22.9141C3.05407 22.779 3.55749 22.7114 4.07769 22.7114C4.6762 22.7114 5.22436 22.7733 5.72219 22.9028C6.21442 23.0323 6.61156 23.1842 6.91361 23.3587Z" fill="#7C7C7C"/>
<path d="M20.3717 28.5258C20.3717 29.3025 20.2766 30.0511 20.0864 30.7772C19.8962 31.4977 19.5942 32.1393 19.1747 32.6966C18.7552 33.2538 18.2182 33.6985 17.5525 34.0306C16.8869 34.3626 16.087 34.5315 15.1361 34.5315C14.1908 34.5315 13.391 34.3739 12.7365 34.0531C12.0821 33.7379 11.5507 33.3045 11.1368 32.7697C10.7284 32.2294 10.4264 31.599 10.2362 30.8785C10.046 30.1581 9.95093 29.3982 9.95093 28.6046C9.95093 27.8109 10.0628 27.0567 10.2809 26.3419C10.4991 25.627 10.8347 25.0023 11.2766 24.4732C11.7185 23.9385 12.2667 23.5163 12.9211 23.2011C13.5755 22.8859 14.3474 22.7227 15.2312 22.7227C16.1598 22.7227 16.9484 22.8803 17.5973 23.2011C18.2461 23.5163 18.7719 23.9441 19.1803 24.4732C19.5886 25.0023 19.8906 25.6214 20.0808 26.3194C20.2766 27.0117 20.3717 27.749 20.3717 28.5258ZM18.2629 28.5258C18.2629 28.0361 18.2182 27.5464 18.1343 27.0623C18.0448 26.5783 17.8937 26.1393 17.67 25.7509C17.4463 25.3625 17.1386 25.0473 16.7415 24.8109C16.3443 24.5745 15.8297 24.4507 15.1977 24.4507C14.5992 24.4507 14.0957 24.5689 13.6874 24.8109C13.2847 25.0473 12.9602 25.3625 12.7253 25.7509C12.4848 26.1393 12.317 26.5783 12.2107 27.0623C12.11 27.5464 12.0541 28.0361 12.0541 28.5258C12.0541 29.0211 12.0988 29.5164 12.1827 30.0286C12.2667 30.5352 12.4345 30.9911 12.6694 31.3964C12.9043 31.8016 13.2231 32.1337 13.6203 32.3983C14.0174 32.6572 14.5208 32.7923 15.1417 32.7923C15.7738 32.7923 16.2996 32.6628 16.7079 32.3983C17.1218 32.1393 17.4351 31.8016 17.6588 31.3964C17.8826 30.9911 18.0336 30.5352 18.1231 30.0286C18.2182 29.5164 18.2629 29.0211 18.2629 28.5258Z" fill="#7C7C7C"/>
<path d="M22.6818 17.4374V31.8467C22.6818 32.1337 22.693 32.4208 22.7153 32.7135C22.7377 33.0062 22.8104 33.2763 22.9279 33.5127C23.0453 33.7491 23.2299 33.9405 23.4705 34.0868C23.7166 34.2276 24.069 34.3007 24.522 34.3007C24.757 34.3007 24.9975 34.2838 25.2436 34.2501C25.4897 34.2163 25.6799 34.1769 25.8253 34.1319V33.2763C25.5401 33.2763 25.3219 33.2482 25.1765 33.1919C25.0255 33.1356 24.9192 33.0512 24.8465 32.9442C24.7737 32.8317 24.7346 32.6966 24.7178 32.5277C24.701 32.3589 24.6954 32.1562 24.6954 31.9198V18.8446C24.6954 18.7039 24.6842 18.5744 24.6675 18.4562C24.1361 18.3436 23.6662 18.1579 23.2635 17.8934C23.0509 17.7583 22.8608 17.6007 22.6818 17.4374Z" fill="#7C7C7C"/>
<path d="M32.4761 32.7866C32.9012 32.7866 33.2927 32.7304 33.6507 32.6065C34.0031 32.4883 34.3107 32.342 34.5624 32.1619C34.8141 31.9874 35.0099 31.8016 35.1554 31.599C35.2952 31.402 35.3679 31.2219 35.3679 31.0587V22.8578H35.5077C35.5357 22.8578 35.5805 22.8522 35.6364 22.8465C35.6923 22.8409 35.7427 22.8353 35.793 22.8353C36.2349 22.8353 36.6097 22.9535 36.9173 23.1786C37.225 23.4094 37.3816 23.8259 37.3816 24.4282V34.1713H35.3679V33.1412C35.0547 33.5015 34.6128 33.8223 34.0422 34.1037C33.4773 34.3852 32.7389 34.5259 31.844 34.5259C30.9266 34.5259 30.2163 34.3852 29.7128 34.0981C29.2038 33.811 28.8347 33.4508 28.5885 33.0005C28.3424 32.5559 28.197 32.0662 28.1522 31.5371C28.1075 31.0024 28.0795 30.4958 28.0795 30.0005V22.8578H28.2194C28.2529 22.8578 28.2921 22.8522 28.348 22.8465C28.404 22.8409 28.4543 22.8353 28.499 22.8353C28.9409 22.8353 29.3157 22.9478 29.6233 23.1674C29.931 23.3925 30.0876 23.8034 30.0876 24.4056V30.0174C30.0876 30.6365 30.1324 31.1318 30.2163 31.4977C30.3002 31.8635 30.4792 32.145 30.7476 32.3307C30.9826 32.5052 31.2399 32.6234 31.514 32.691C31.7992 32.7585 32.1181 32.7866 32.4761 32.7866Z" fill="#7C7C7C"/>
<path d="M40.8719 32.7416C40.7601 32.4376 40.6929 32.1112 40.6706 31.7509C40.6482 31.3963 40.6314 31.0417 40.6314 30.6928V19.5481H40.7768C40.8104 19.5481 40.8496 19.5425 40.9055 19.5369C40.9614 19.5312 41.0118 19.5256 41.0565 19.5256C41.4816 19.5256 41.8564 19.6382 42.1696 19.8577C42.4829 20.0772 42.6451 20.4825 42.6451 21.0622V22.9534H46.169V24.6927H42.6451V30.8391C42.6451 32.1393 43.1597 32.7922 44.1833 32.7922C44.435 32.7922 44.6699 32.7472 44.8937 32.6628C45.1118 32.5783 45.3132 32.4714 45.4866 32.3532C45.66 32.235 45.8054 32.1168 45.9229 32.0098C46.0404 31.8973 46.1187 31.8185 46.1466 31.7734C46.3368 32.0098 46.499 32.2406 46.6333 32.4658C46.7675 32.6853 46.8346 32.9048 46.8346 33.1074C46.8346 33.2481 46.7619 33.4057 46.6221 33.569C46.4822 33.7378 46.2809 33.8898 46.0292 34.0361C45.7775 34.1769 45.4642 34.3007 45.0951 34.3964C44.7259 34.4921 44.3176 34.5371 43.8757 34.5371C43.0534 34.5371 42.399 34.3795 41.9123 34.0587C41.4257 33.7322 41.0789 33.2988 40.8719 32.7416Z" fill="#7C7C7C"/>
<path d="M48.7533 22.8578H48.8931C48.9267 22.8578 48.9658 22.8522 49.0218 22.8465C49.0777 22.8409 49.1281 22.8353 49.1784 22.8353C49.6203 22.8353 49.9951 22.9535 50.3027 23.1786C50.6103 23.4094 50.767 23.8259 50.767 24.4282V32.0268C50.767 32.4883 50.8341 32.8148 50.9683 33.0005C51.1026 33.1919 51.4158 33.2876 51.9024 33.2876V34.1431C51.7626 34.1882 51.5668 34.2332 51.3263 34.2613C51.0802 34.2951 50.8397 34.312 50.6048 34.312C50.1461 34.312 49.7937 34.2388 49.5532 34.0981C49.3071 33.9574 49.1281 33.766 49.0106 33.5296C48.8931 33.2932 48.8204 33.0287 48.798 32.7304C48.7757 32.4377 48.7645 32.145 48.7645 31.8635V22.8578H48.7533Z" fill="#7C7C7C"/>
<path d="M63.8222 28.5258C63.8222 29.3025 63.7271 30.0511 63.537 30.7772C63.3468 31.4977 63.0447 32.1393 62.6252 32.6966C62.2057 33.2538 61.6687 33.6985 61.0031 34.0306C60.343 34.3626 59.5376 34.5315 58.5923 34.5315C57.647 34.5315 56.8415 34.3739 56.1926 34.0531C55.5382 33.7379 55.0068 33.3045 54.5985 32.7697C54.1846 32.2294 53.8881 31.599 53.6979 30.8785C53.5077 30.1581 53.4127 29.3982 53.4127 28.6046C53.4127 27.8109 53.5245 27.0567 53.7427 26.3419C53.9664 25.627 54.2964 25.0023 54.7383 24.4732C55.1802 23.9385 55.7284 23.5163 56.3828 23.2011C57.0373 22.8859 57.8036 22.7227 58.6874 22.7227C59.6215 22.7227 60.4046 22.8803 61.0534 23.2011C61.7023 23.5163 62.2281 23.9441 62.642 24.4732C63.0503 25.0023 63.3524 25.6214 63.5426 26.3194C63.7271 27.0117 63.8222 27.749 63.8222 28.5258ZM61.7135 28.5258C61.7135 28.0361 61.6687 27.5464 61.5848 27.0623C61.4953 26.5783 61.3443 26.1393 61.1205 25.7509C60.8968 25.3625 60.5892 25.0473 60.192 24.8109C59.7949 24.5745 59.2803 24.4507 58.6482 24.4507C58.0441 24.4507 57.5463 24.5689 57.138 24.8109C56.7352 25.0473 56.4108 25.3625 56.1759 25.7509C55.9409 26.1393 55.7675 26.5783 55.6669 27.0623C55.5662 27.5464 55.5102 28.0361 55.5102 28.5258C55.5102 29.0211 55.555 29.5164 55.6389 30.0286C55.7284 30.5352 55.8906 30.9911 56.1255 31.3964C56.3605 31.8016 56.6793 32.1337 57.0764 32.3983C57.4736 32.6572 57.9826 32.7923 58.5979 32.7923C59.2299 32.7923 59.7557 32.6628 60.1641 32.3983C60.578 32.1393 60.8912 31.8016 61.115 31.3964C61.3387 30.9911 61.4897 30.5352 61.5792 30.0286C61.6687 29.5164 61.7135 29.0211 61.7135 28.5258Z" fill="#7C7C7C"/>
<path d="M66.3897 22.9084C66.7533 22.9084 67.0777 22.9985 67.3742 23.1842C67.665 23.3643 67.844 23.6796 67.9055 24.1242C68.2691 23.7584 68.7614 23.4319 69.3822 23.1505C70.0087 22.8634 70.7415 22.7227 71.5973 22.7227C72.6712 22.7227 73.4935 22.9591 74.0584 23.4375C74.629 23.916 74.9981 24.507 75.1715 25.2218C75.2498 25.537 75.3002 25.8916 75.3114 26.28C75.3282 26.6683 75.3337 27.0455 75.3337 27.4113V34.1769H73.3257V27.4789C73.3257 27.1805 73.3201 26.8879 73.3145 26.6121C73.3089 26.3363 73.2641 26.0773 73.1858 25.8353C73.074 25.4244 72.8502 25.1036 72.5034 24.8841C72.1566 24.6646 71.642 24.552 70.9652 24.552C70.0646 24.552 69.3487 24.7321 68.8117 25.0867C68.2747 25.4469 68.0062 25.8297 68.0062 26.2406V34.1713H65.9926V22.9309H66.11C66.1436 22.9309 66.1827 22.9253 66.2387 22.9197C66.289 22.9084 66.3394 22.9084 66.3897 22.9084Z" fill="#7C7C7C"/>
<path d="M84.3058 23.3587C84.619 23.5332 84.8371 23.6964 84.9434 23.8484C85.0497 24.0004 85.1112 24.1467 85.1112 24.2874C85.1112 24.4619 85.0665 24.6646 84.9826 24.8953C84.8931 25.1261 84.7868 25.3512 84.6637 25.5764L84.3337 25.5989C84.0652 25.2668 83.6737 24.9741 83.1591 24.7321C82.6445 24.4844 82.0963 24.3606 81.5146 24.3606C81.3076 24.3606 81.0839 24.3831 80.8378 24.4169C80.5917 24.4563 80.3623 24.5295 80.1498 24.6308C79.9372 24.7321 79.7582 24.8784 79.6184 25.0698C79.4729 25.2612 79.4058 25.4976 79.4058 25.7846C79.4058 26.2912 79.6296 26.6571 80.0826 26.8822C80.5301 27.1017 81.0895 27.2931 81.7495 27.4563C82.225 27.5689 82.678 27.704 83.1199 27.8729C83.5618 28.0417 83.9534 28.2556 84.289 28.5145C84.6302 28.7791 84.8987 29.1055 85.0944 29.5052C85.2902 29.8992 85.3909 30.3945 85.3909 30.9798C85.3909 31.5652 85.2734 32.0774 85.0329 32.5165C84.798 32.9555 84.4792 33.3157 84.0876 33.614C83.6905 33.9067 83.2318 34.1319 82.7004 34.2782C82.1746 34.4302 81.6209 34.5034 81.0559 34.5034C80.5022 34.5034 80.0043 34.4583 79.568 34.3739C79.1261 34.2895 78.757 34.1769 78.4549 34.0531C78.0578 33.8955 77.7837 33.7322 77.6271 33.5634C77.4705 33.3945 77.3922 33.2257 77.3922 33.0512C77.3922 32.8485 77.4481 32.629 77.5544 32.4095C77.6662 32.19 77.8061 31.9367 77.9795 31.6497C78.0913 31.7453 78.2424 31.8635 78.4381 32.0043C78.6339 32.145 78.8688 32.2801 79.1429 32.4095C79.417 32.539 79.7191 32.6459 80.0491 32.7303C80.3791 32.8204 80.7315 32.8598 81.1118 32.8598C81.3915 32.8598 81.6712 32.8317 81.9341 32.7754C82.2026 32.7191 82.4431 32.629 82.6557 32.4996C82.8682 32.3701 83.0416 32.1956 83.1759 31.9761C83.3101 31.751 83.3772 31.4752 83.3772 31.1431C83.3772 30.811 83.3045 30.5352 83.1647 30.3213C83.0248 30.1074 82.8347 29.9273 82.5997 29.7866C82.3648 29.6459 82.1019 29.5277 81.811 29.4432C81.5202 29.3588 81.2237 29.28 80.9273 29.2181C80.4742 29.1224 80.0323 28.9986 79.6184 28.8466C79.1989 28.6946 78.8353 28.492 78.5109 28.2387C78.1864 27.9854 77.9291 27.6646 77.7334 27.2875C77.5376 26.9047 77.4369 26.4488 77.4369 25.9028C77.4369 25.3794 77.5488 24.9178 77.7669 24.5126C77.9907 24.1073 78.2871 23.7752 78.6675 23.5107C79.0478 23.2518 79.4785 23.0491 79.9596 22.9141C80.4406 22.779 80.944 22.7114 81.4642 22.7114C82.0628 22.7114 82.6109 22.7733 83.1087 22.9028C83.6066 23.0323 84.0037 23.1842 84.3058 23.3587Z" fill="#7C7C7C"/>
<path d="M90 24.6139C90 24.8728 89.9553 25.1205 89.8714 25.3512C89.7819 25.582 89.6644 25.7846 89.5078 25.9648C89.3512 26.1392 89.1554 26.28 88.9372 26.3813C88.7135 26.4826 88.4618 26.5333 88.1877 26.5333C87.8968 26.5333 87.6395 26.4826 87.4158 26.3813C87.192 26.28 87.0019 26.1392 86.8508 25.9648C86.6998 25.7903 86.5823 25.582 86.504 25.3512C86.4257 25.1205 86.381 24.8728 86.381 24.6139C86.381 24.355 86.4201 24.1129 86.504 23.8822C86.5879 23.6514 86.711 23.4488 86.8676 23.2743C87.0242 23.0998 87.2144 22.9647 87.4382 22.8634C87.6619 22.7621 87.9136 22.7114 88.1933 22.7114C88.4674 22.7114 88.7191 22.7621 88.9428 22.8634C89.1666 22.9647 89.3567 23.1054 89.5134 23.2743C89.6756 23.4488 89.793 23.6514 89.8769 23.8822C89.9608 24.1129 90 24.3606 90 24.6139ZM89.6924 24.6139C89.6924 24.4 89.6588 24.1974 89.5917 24.006C89.519 23.809 89.4183 23.6401 89.2952 23.4938C89.1666 23.3418 89.0043 23.2236 88.8198 23.1392C88.6352 23.0491 88.4226 23.0041 88.1933 23.0041C87.9584 23.0041 87.7514 23.0491 87.5668 23.1392C87.3822 23.2236 87.2256 23.3475 87.097 23.4938C86.9683 23.6401 86.8676 23.8146 86.8005 24.006C86.7278 24.203 86.6942 24.4056 86.6942 24.6139C86.6942 24.8278 86.7278 25.0304 86.7949 25.2274C86.862 25.4244 86.9571 25.5933 87.0858 25.7452C87.2144 25.8972 87.3655 26.0154 87.55 26.1055C87.7346 26.1955 87.9472 26.2406 88.1877 26.2406C88.417 26.2406 88.6296 26.1955 88.8142 26.1055C89.0044 26.0154 89.161 25.8972 89.2896 25.7452C89.4183 25.5933 89.519 25.4244 89.5861 25.2274C89.6588 25.0304 89.6924 24.8278 89.6924 24.6139ZM89.1386 25.6496C89.0379 25.7002 88.9484 25.7227 88.8701 25.7227C88.8086 25.7227 88.747 25.7115 88.6911 25.6777C88.6352 25.6496 88.5904 25.6045 88.5513 25.5426L88.1262 24.8503H87.9248V25.6777H87.4773V23.4657C87.5724 23.46 87.6843 23.4488 87.8129 23.4431C87.9416 23.4375 88.0535 23.4319 88.1541 23.4319C88.4618 23.4319 88.6911 23.4938 88.831 23.6233C88.9708 23.7471 89.0435 23.9103 89.0435 24.1073C89.0435 24.1974 89.0323 24.2818 89.0044 24.3494C88.9764 24.4225 88.9484 24.4844 88.9037 24.5351C88.8645 24.5914 88.8142 24.6364 88.7582 24.6758C88.7023 24.7096 88.6464 24.7434 88.5904 24.7659L89.1386 25.6496ZM88.5569 24.1411C88.5569 23.9103 88.4226 23.7921 88.143 23.7921C88.0926 23.7921 88.0535 23.7921 88.0199 23.7921C87.9863 23.7921 87.9528 23.7977 87.9248 23.7977V24.5013H88.1709C88.3052 24.5013 88.4058 24.4676 88.4674 24.4056C88.5233 24.3437 88.5569 24.2537 88.5569 24.1411Z" fill="#7C7C7C"/>
</svg>
